<svg xmlns="http://www.w3.org/2000/svg" xmlns:xlink="http://www.w3.org/1999/xlink" width="500" zoomAndPan="magnify" viewBox="0 0 375 374.999991" height="500" preserveAspectRatio="xMidYMid meet" version="1.0"><defs><clipPath id="19fac93554"><path d="M 260 260 L 361 260 L 361 360.25 L 260 360.25 Z M 260 260 " clip-rule="nonzero"/></clipPath><clipPath id="119c31aead"><path d="M 14 260 L 114 260 L 114 360.25 L 14 360.25 Z M 14 260 " clip-rule="nonzero"/></clipPath></defs><path fill="#0085c2" d="M 265.867188 198.675781 C 283.625 234.496094 320.730469 237.292969 346.5 220.894531 C 367.585938 207.515625 376.957031 181.597656 370.15625 157.5625 C 365.925781 142.523438 359.878906 128.316406 352.320312 115.015625 C 341.96875 96.878906 326.25 82.367188 307.355469 73.453125 C 286.269531 63.402344 266.621094 58.335938 249.089844 58.335938 C 227.550781 58.335938 209.640625 66.121094 194.375 78.515625 C 227.171875 110.179688 247.273438 161.117188 265.867188 198.675781 Z M 265.867188 198.675781 " fill-opacity="1" fill-rule="nonzero"/><g clip-path="url(#19fac93554)"><path fill="#0085c2" d="M 260.953125 310.597656 C 260.953125 308.972656 261.035156 307.347656 261.191406 305.730469 C 261.351562 304.113281 261.589844 302.507812 261.90625 300.910156 C 262.226562 299.316406 262.621094 297.742188 263.09375 296.183594 C 263.5625 294.628906 264.109375 293.097656 264.734375 291.597656 C 265.355469 290.09375 266.050781 288.625 266.816406 287.191406 C 267.582031 285.757812 268.417969 284.367188 269.320312 283.011719 C 270.226562 281.660156 271.191406 280.355469 272.222656 279.097656 C 273.253906 277.84375 274.347656 276.640625 275.496094 275.488281 C 276.644531 274.339844 277.851562 273.25 279.105469 272.21875 C 280.363281 271.183594 281.667969 270.21875 283.019531 269.316406 C 284.371094 268.410156 285.765625 267.574219 287.199219 266.808594 C 288.632812 266.042969 290.101562 265.347656 291.605469 264.726562 C 293.105469 264.105469 294.636719 263.558594 296.191406 263.085938 C 297.75 262.613281 299.324219 262.21875 300.917969 261.902344 C 302.511719 261.582031 304.121094 261.34375 305.738281 261.1875 C 307.355469 261.027344 308.980469 260.945312 310.605469 260.945312 C 312.230469 260.945312 313.851562 261.027344 315.472656 261.1875 C 317.089844 261.34375 318.695312 261.582031 320.292969 261.902344 C 321.886719 262.21875 323.460938 262.613281 325.019531 263.085938 C 326.574219 263.558594 328.101562 264.105469 329.605469 264.726562 C 331.109375 265.347656 332.578125 266.042969 334.011719 266.808594 C 335.445312 267.574219 336.835938 268.410156 338.191406 269.316406 C 339.542969 270.21875 340.847656 271.183594 342.101562 272.21875 C 343.359375 273.25 344.5625 274.339844 345.714844 275.488281 C 346.863281 276.640625 347.953125 277.84375 348.984375 279.097656 C 350.015625 280.355469 350.984375 281.660156 351.886719 283.011719 C 352.792969 284.367188 353.625 285.757812 354.394531 287.191406 C 355.160156 288.625 355.855469 290.09375 356.476562 291.597656 C 357.097656 293.097656 357.644531 294.628906 358.117188 296.183594 C 358.589844 297.742188 358.984375 299.316406 359.300781 300.910156 C 359.621094 302.507812 359.859375 304.113281 360.015625 305.730469 C 360.175781 307.347656 360.257812 308.972656 360.257812 310.597656 C 360.257812 312.222656 360.175781 313.847656 360.015625 315.464844 C 359.859375 317.082031 359.621094 318.6875 359.300781 320.285156 C 358.984375 321.878906 358.589844 323.453125 358.117188 325.011719 C 357.644531 326.566406 357.097656 328.097656 356.476562 329.597656 C 355.855469 331.101562 355.160156 332.570312 354.394531 334.003906 C 353.625 335.4375 352.792969 336.832031 351.886719 338.183594 C 350.984375 339.535156 350.015625 340.839844 348.984375 342.097656 C 347.953125 343.351562 346.863281 344.558594 345.714844 345.707031 C 344.5625 346.855469 343.359375 347.945312 342.101562 348.980469 C 340.847656 350.011719 339.542969 350.976562 338.191406 351.882812 C 336.835938 352.785156 335.445312 353.621094 334.011719 354.386719 C 332.578125 355.152344 331.109375 355.847656 329.605469 356.46875 C 328.101562 357.09375 326.574219 357.640625 325.019531 358.109375 C 323.460938 358.582031 321.886719 358.976562 320.292969 359.296875 C 318.695312 359.613281 317.089844 359.851562 315.472656 360.011719 C 313.851562 360.167969 312.230469 360.25 310.605469 360.25 C 308.980469 360.25 307.355469 360.167969 305.738281 360.011719 C 304.121094 359.851562 302.511719 359.613281 300.917969 359.296875 C 299.324219 358.976562 297.75 358.582031 296.191406 358.109375 C 294.636719 357.640625 293.105469 357.09375 291.605469 356.46875 C 290.101562 355.847656 288.632812 355.152344 287.199219 354.386719 C 285.765625 353.621094 284.371094 352.785156 283.019531 351.882812 C 281.667969 350.976562 280.363281 350.011719 279.105469 348.980469 C 277.851562 347.945312 276.644531 346.855469 275.496094 345.707031 C 274.347656 344.558594 273.253906 343.351562 272.222656 342.097656 C 271.191406 340.839844 270.226562 339.535156 269.320312 338.183594 C 268.417969 336.832031 267.582031 335.4375 266.816406 334.003906 C 266.050781 332.570312 265.355469 331.101562 264.734375 329.597656 C 264.109375 328.097656 263.5625 326.566406 263.09375 325.011719 C 262.621094 323.453125 262.226562 321.878906 261.90625 320.285156 C 261.589844 318.6875 261.351562 317.082031 261.191406 315.464844 C 261.035156 313.847656 260.953125 312.222656 260.953125 310.597656 Z M 260.953125 310.597656 " fill-opacity="1" fill-rule="nonzero"/></g><path fill="#004aad" d="M 28.34375 220.894531 C 54.113281 237.292969 91.292969 234.570312 108.976562 198.675781 C 144.722656 126.730469 185.757812 5.664062 311.285156 65.289062 C 278.035156 36.648438 234.730469 19.339844 187.421875 19.339844 C 100.589844 19.339844 27.359375 77.683594 4.761719 157.261719 C -1.960938 181.292969 7.257812 207.515625 28.34375 220.894531 Z M 28.34375 220.894531 " fill-opacity="1" fill-rule="nonzero"/><g clip-path="url(#119c31aead)"><path fill="#004aad" d="M 14.664062 310.597656 C 14.664062 308.972656 14.742188 307.347656 14.902344 305.730469 C 15.0625 304.113281 15.300781 302.507812 15.617188 300.910156 C 15.933594 299.316406 16.328125 297.742188 16.800781 296.183594 C 17.273438 294.628906 17.820312 293.097656 18.441406 291.597656 C 19.066406 290.09375 19.757812 288.625 20.527344 287.191406 C 21.292969 285.757812 22.128906 284.367188 23.03125 283.011719 C 23.933594 281.660156 24.902344 280.355469 25.933594 279.097656 C 26.964844 277.84375 28.054688 276.640625 29.207031 275.488281 C 30.355469 274.339844 31.558594 273.25 32.816406 272.21875 C 34.074219 271.183594 35.378906 270.21875 36.730469 269.316406 C 38.082031 268.410156 39.476562 267.574219 40.910156 266.808594 C 42.34375 266.042969 43.8125 265.347656 45.3125 264.726562 C 46.816406 264.105469 48.34375 263.558594 49.902344 263.085938 C 51.457031 262.613281 53.03125 262.21875 54.628906 261.902344 C 56.222656 261.582031 57.828125 261.34375 59.449219 261.1875 C 61.066406 261.027344 62.6875 260.945312 64.3125 260.945312 C 65.941406 260.945312 67.5625 261.027344 69.179688 261.1875 C 70.800781 261.34375 72.40625 261.582031 74 261.902344 C 75.597656 262.21875 77.171875 262.613281 78.726562 263.085938 C 80.285156 263.558594 81.8125 264.105469 83.316406 264.726562 C 84.816406 265.347656 86.285156 266.042969 87.71875 266.808594 C 89.152344 267.574219 90.546875 268.410156 91.898438 269.316406 C 93.25 270.21875 94.554688 271.183594 95.8125 272.21875 C 97.070312 273.25 98.273438 274.339844 99.421875 275.488281 C 100.574219 276.640625 101.664062 277.84375 102.695312 279.097656 C 103.726562 280.355469 104.695312 281.660156 105.597656 283.011719 C 106.5 284.367188 107.335938 285.757812 108.101562 287.191406 C 108.871094 288.625 109.5625 290.09375 110.1875 291.597656 C 110.808594 293.097656 111.355469 294.628906 111.828125 296.183594 C 112.300781 297.742188 112.695312 299.316406 113.011719 300.910156 C 113.328125 302.507812 113.566406 304.113281 113.726562 305.730469 C 113.886719 307.347656 113.964844 308.972656 113.964844 310.597656 C 113.964844 312.222656 113.886719 313.847656 113.726562 315.464844 C 113.566406 317.082031 113.328125 318.6875 113.011719 320.285156 C 112.695312 321.878906 112.300781 323.453125 111.828125 325.011719 C 111.355469 326.566406 110.808594 328.097656 110.1875 329.597656 C 109.5625 331.101562 108.871094 332.570312 108.101562 334.003906 C 107.335938 335.4375 106.5 336.832031 105.597656 338.183594 C 104.695312 339.535156 103.726562 340.839844 102.695312 342.097656 C 101.664062 343.351562 100.574219 344.558594 99.421875 345.707031 C 98.273438 346.855469 97.070312 347.945312 95.8125 348.980469 C 94.554688 350.011719 93.25 350.976562 91.898438 351.882812 C 90.546875 352.785156 89.152344 353.621094 87.71875 354.386719 C 86.285156 355.152344 84.816406 355.847656 83.316406 356.46875 C 81.8125 357.09375 80.285156 357.640625 78.726562 358.109375 C 77.171875 358.582031 75.59375 358.976562 74 359.296875 C 72.40625 359.613281 70.800781 359.851562 69.179688 360.011719 C 67.5625 360.167969 65.941406 360.25 64.3125 360.25 C 62.6875 360.25 61.066406 360.167969 59.449219 360.011719 C 57.828125 359.851562 56.222656 359.613281 54.628906 359.296875 C 53.03125 358.976562 51.457031 358.582031 49.902344 358.109375 C 48.34375 357.640625 46.816406 357.09375 45.3125 356.46875 C 43.8125 355.847656 42.34375 355.152344 40.910156 354.386719 C 39.476562 353.621094 38.082031 352.785156 36.730469 351.882812 C 35.378906 350.976562 34.074219 350.011719 32.816406 348.980469 C 31.558594 347.945312 30.355469 346.855469 29.207031 345.707031 C 28.054688 344.558594 26.964844 343.351562 25.933594 342.097656 C 24.902344 340.839844 23.933594 339.535156 23.03125 338.183594 C 22.128906 336.832031 21.292969 335.4375 20.527344 334.003906 C 19.757812 332.570312 19.066406 331.101562 18.441406 329.597656 C 17.820312 328.097656 17.273438 326.566406 16.800781 325.011719 C 16.328125 323.453125 15.933594 321.878906 15.617188 320.285156 C 15.300781 318.6875 15.0625 317.082031 14.902344 315.464844 C 14.742188 313.847656 14.664062 312.222656 14.664062 310.597656 Z M 14.664062 310.597656 " fill-opacity="1" fill-rule="nonzero"/></g></svg>