<svg xmlns="http://www.w3.org/2000/svg" xmlns:xlink="http://www.w3.org/1999/xlink" width="402" zoomAndPan="magnify" viewBox="0 0 301.5 64.499998" height="86" preserveAspectRatio="xMidYMid meet" version="1.0"><defs><g/><clipPath id="1141492259"><path d="M 49 44 L 68 44 L 68 63.039062 L 49 63.039062 Z M 49 44 " clip-rule="nonzero"/></clipPath><clipPath id="a4b6ab2163"><path d="M 3 44 L 23 44 L 23 63.039062 L 3 63.039062 Z M 3 44 " clip-rule="nonzero"/></clipPath></defs><path fill="#0085c2" d="M 49.941406 33.488281 C 53.1875 40.042969 59.976562 40.554688 64.691406 37.554688 C 68.550781 35.105469 70.261719 30.363281 69.019531 25.96875 C 68.246094 23.214844 67.140625 20.617188 65.757812 18.183594 C 63.863281 14.867188 60.988281 12.210938 57.53125 10.578125 C 53.671875 8.742188 50.078125 7.816406 46.871094 7.816406 C 42.929688 7.816406 39.652344 9.238281 36.859375 11.507812 C 42.863281 17.300781 46.539062 26.617188 49.941406 33.488281 Z M 49.941406 33.488281 " fill-opacity="1" fill-rule="nonzero"/><g clip-path="url(#1141492259)"><path fill="#0085c2" d="M 49.042969 53.964844 C 49.042969 53.367188 49.097656 52.777344 49.214844 52.191406 C 49.332031 51.609375 49.503906 51.039062 49.734375 50.488281 C 49.960938 49.9375 50.242188 49.414062 50.570312 48.917969 C 50.902344 48.421875 51.28125 47.964844 51.703125 47.542969 C 52.125 47.121094 52.582031 46.742188 53.078125 46.410156 C 53.574219 46.082031 54.097656 45.800781 54.648438 45.574219 C 55.199219 45.34375 55.769531 45.171875 56.351562 45.054688 C 56.9375 44.9375 57.527344 44.882812 58.125 44.882812 C 58.722656 44.882812 59.3125 44.9375 59.898438 45.054688 C 60.480469 45.171875 61.050781 45.34375 61.601562 45.574219 C 62.152344 45.800781 62.675781 46.082031 63.171875 46.410156 C 63.667969 46.742188 64.125 47.121094 64.546875 47.542969 C 64.96875 47.964844 65.347656 48.421875 65.675781 48.917969 C 66.007812 49.414062 66.289062 49.9375 66.515625 50.488281 C 66.746094 51.039062 66.917969 51.609375 67.035156 52.191406 C 67.148438 52.777344 67.207031 53.367188 67.207031 53.964844 C 67.207031 54.5625 67.148438 55.152344 67.035156 55.738281 C 66.917969 56.320312 66.746094 56.890625 66.515625 57.441406 C 66.289062 57.992188 66.007812 58.515625 65.675781 59.011719 C 65.347656 59.507812 64.96875 59.964844 64.546875 60.386719 C 64.125 60.808594 63.667969 61.1875 63.171875 61.515625 C 62.675781 61.847656 62.152344 62.128906 61.601562 62.355469 C 61.050781 62.585938 60.480469 62.757812 59.898438 62.875 C 59.3125 62.988281 58.722656 63.046875 58.125 63.046875 C 57.527344 63.046875 56.9375 62.988281 56.351562 62.875 C 55.769531 62.757812 55.199219 62.585938 54.648438 62.355469 C 54.097656 62.128906 53.574219 61.847656 53.078125 61.515625 C 52.582031 61.1875 52.125 60.808594 51.703125 60.386719 C 51.28125 59.964844 50.902344 59.507812 50.570312 59.011719 C 50.242188 58.515625 49.960938 57.992188 49.734375 57.441406 C 49.503906 56.890625 49.332031 56.320312 49.214844 55.738281 C 49.097656 55.152344 49.042969 54.5625 49.042969 53.964844 Z M 49.042969 53.964844 " fill-opacity="1" fill-rule="nonzero"/></g><path fill="#004aad" d="M 6.488281 37.554688 C 11.199219 40.554688 18.003906 40.054688 21.238281 33.488281 C 27.777344 20.328125 35.285156 -1.820312 58.25 9.085938 C 52.164062 3.847656 44.242188 0.679688 35.589844 0.679688 C 19.703125 0.679688 6.308594 11.355469 2.171875 25.914062 C 0.941406 30.308594 2.628906 35.105469 6.488281 37.554688 Z M 6.488281 37.554688 " fill-opacity="1" fill-rule="nonzero"/><g clip-path="url(#a4b6ab2163)"><path fill="#004aad" d="M 3.984375 53.964844 C 3.984375 53.367188 4.042969 52.777344 4.160156 52.191406 C 4.273438 51.609375 4.445312 51.039062 4.675781 50.488281 C 4.902344 49.9375 5.183594 49.414062 5.515625 48.917969 C 5.847656 48.421875 6.222656 47.964844 6.644531 47.542969 C 7.066406 47.121094 7.523438 46.742188 8.019531 46.410156 C 8.515625 46.082031 9.039062 45.800781 9.589844 45.574219 C 10.140625 45.34375 10.710938 45.171875 11.296875 45.054688 C 11.878906 44.9375 12.472656 44.882812 13.066406 44.882812 C 13.664062 44.882812 14.253906 44.9375 14.839844 45.054688 C 15.425781 45.171875 15.992188 45.34375 16.542969 45.574219 C 17.09375 45.800781 17.617188 46.082031 18.113281 46.410156 C 18.609375 46.742188 19.070312 47.121094 19.492188 47.542969 C 19.910156 47.964844 20.289062 48.421875 20.621094 48.917969 C 20.953125 49.414062 21.230469 49.9375 21.460938 50.488281 C 21.6875 51.039062 21.859375 51.609375 21.976562 52.191406 C 22.09375 52.777344 22.152344 53.367188 22.152344 53.964844 C 22.152344 54.5625 22.09375 55.152344 21.976562 55.738281 C 21.859375 56.320312 21.6875 56.890625 21.460938 57.441406 C 21.230469 57.992188 20.953125 58.515625 20.621094 59.011719 C 20.289062 59.507812 19.910156 59.964844 19.492188 60.386719 C 19.070312 60.808594 18.609375 61.1875 18.113281 61.515625 C 17.617188 61.847656 17.09375 62.128906 16.542969 62.355469 C 15.992188 62.585938 15.425781 62.757812 14.839844 62.875 C 14.253906 62.988281 13.664062 63.046875 13.066406 63.046875 C 12.472656 63.046875 11.878906 62.988281 11.296875 62.875 C 10.710938 62.757812 10.140625 62.585938 9.589844 62.355469 C 9.039062 62.128906 8.515625 61.847656 8.019531 61.515625 C 7.523438 61.1875 7.066406 60.808594 6.644531 60.386719 C 6.222656 59.964844 5.847656 59.507812 5.515625 59.011719 C 5.183594 58.515625 4.902344 57.992188 4.675781 57.441406 C 4.445312 56.890625 4.273438 56.320312 4.160156 55.738281 C 4.042969 55.152344 3.984375 54.5625 3.984375 53.964844 Z M 3.984375 53.964844 " fill-opacity="1" fill-rule="nonzero"/></g><g fill="#000000" fill-opacity="1"><g transform="translate(81.048568, 44.660992)"><g><path d="M 23.234375 -0.59375 C 23.328125 -0.414062 23.332031 -0.265625 23.25 -0.140625 C 23.175781 -0.015625 23.035156 0.046875 22.828125 0.046875 L 20.890625 0.046875 C 20.765625 0.046875 20.65625 0.00390625 20.5625 -0.078125 C 20.46875 -0.171875 20.394531 -0.273438 20.34375 -0.390625 L 19 -3.59375 L 5.09375 -3.59375 L 3.78125 -0.40625 C 3.738281 -0.289062 3.664062 -0.1875 3.5625 -0.09375 C 3.457031 -0.0078125 3.34375 0.03125 3.21875 0.03125 L 1.3125 0.03125 C 1.101562 0.03125 0.960938 -0.0234375 0.890625 -0.140625 C 0.816406 -0.253906 0.816406 -0.410156 0.890625 -0.609375 L 11.390625 -24.75 C 11.515625 -25.0625 11.71875 -25.21875 12 -25.21875 L 12.125 -25.21875 C 12.25 -25.21875 12.367188 -25.171875 12.484375 -25.078125 C 12.597656 -24.992188 12.679688 -24.878906 12.734375 -24.734375 Z M 6.109375 -6 L 18 -6 L 12.0625 -20.3125 Z M 6.109375 -6 "/></g></g></g><g fill="#000000" fill-opacity="1"><g transform="translate(104.156049, 44.660992)"><g><path d="M 18.25 -25.796875 C 18.519531 -25.796875 18.65625 -25.664062 18.65625 -25.40625 L 18.65625 -0.375 C 18.65625 -0.101562 18.523438 0.03125 18.265625 0.03125 L 17.265625 0.03125 C 17.046875 0.03125 16.910156 -0.0703125 16.859375 -0.28125 L 16.359375 -3.578125 C 15.671875 -2.378906 14.734375 -1.425781 13.546875 -0.71875 C 12.367188 -0.0195312 11.050781 0.328125 9.59375 0.328125 C 8.4375 0.328125 7.359375 0.109375 6.359375 -0.328125 C 5.367188 -0.765625 4.5 -1.375 3.75 -2.15625 C 3.007812 -2.9375 2.425781 -3.847656 2 -4.890625 C 1.582031 -5.941406 1.375 -7.078125 1.375 -8.296875 C 1.375 -9.535156 1.582031 -10.679688 2 -11.734375 C 2.425781 -12.796875 3.007812 -13.71875 3.75 -14.5 C 4.488281 -15.289062 5.351562 -15.898438 6.34375 -16.328125 C 7.34375 -16.765625 8.421875 -16.984375 9.578125 -16.984375 C 10.984375 -16.984375 12.257812 -16.660156 13.40625 -16.015625 C 14.550781 -15.378906 15.472656 -14.5 16.171875 -13.375 L 16.140625 -25.40625 C 16.140625 -25.664062 16.269531 -25.796875 16.53125 -25.796875 Z M 10.015625 -2.125 C 10.890625 -2.125 11.703125 -2.28125 12.453125 -2.59375 C 13.203125 -2.914062 13.859375 -3.359375 14.421875 -3.921875 C 14.992188 -4.484375 15.441406 -5.140625 15.765625 -5.890625 C 16.085938 -6.640625 16.25 -7.445312 16.25 -8.3125 C 16.25 -9.1875 16.082031 -10 15.75 -10.75 C 15.425781 -11.5 14.976562 -12.15625 14.40625 -12.71875 C 13.84375 -13.289062 13.1875 -13.734375 12.4375 -14.046875 C 11.6875 -14.359375 10.875 -14.515625 10 -14.515625 C 9.15625 -14.515625 8.363281 -14.359375 7.625 -14.046875 C 6.894531 -13.734375 6.25 -13.289062 5.6875 -12.71875 C 5.132812 -12.15625 4.695312 -11.5 4.375 -10.75 C 4.0625 -10 3.90625 -9.1875 3.90625 -8.3125 C 3.90625 -7.445312 4.0625 -6.640625 4.375 -5.890625 C 4.695312 -5.140625 5.132812 -4.484375 5.6875 -3.921875 C 6.25 -3.359375 6.898438 -2.914062 7.640625 -2.59375 C 8.378906 -2.28125 9.171875 -2.125 10.015625 -2.125 Z M 10.015625 -2.125 "/></g></g></g><g fill="#000000" fill-opacity="1"><g transform="translate(124.351532, 44.660992)"><g><path d="M 21.125 -16.921875 C 22.269531 -16.921875 23.273438 -16.632812 24.140625 -16.0625 C 25.003906 -15.5 25.679688 -14.707031 26.171875 -13.6875 C 26.671875 -12.675781 26.921875 -11.488281 26.921875 -10.125 L 26.921875 -0.375 C 26.921875 -0.269531 26.882812 -0.175781 26.8125 -0.09375 C 26.738281 -0.0195312 26.644531 0.015625 26.53125 0.015625 L 24.828125 0.015625 C 24.554688 0.015625 24.421875 -0.113281 24.421875 -0.375 L 24.421875 -9.984375 C 24.421875 -10.898438 24.253906 -11.703125 23.921875 -12.390625 C 23.585938 -13.078125 23.125 -13.617188 22.53125 -14.015625 C 21.9375 -14.410156 21.238281 -14.609375 20.4375 -14.609375 C 19.539062 -14.609375 18.757812 -14.40625 18.09375 -14 C 17.425781 -13.601562 16.910156 -13.046875 16.546875 -12.328125 C 16.179688 -11.617188 16 -10.796875 16 -9.859375 L 15.984375 -9.890625 L 15.984375 -0.375 C 15.984375 -0.269531 15.945312 -0.175781 15.875 -0.09375 C 15.800781 -0.0195312 15.703125 0.015625 15.578125 0.015625 L 13.890625 0.015625 C 13.617188 0.015625 13.484375 -0.113281 13.484375 -0.375 L 13.484375 -9.984375 C 13.484375 -10.898438 13.3125 -11.703125 12.96875 -12.390625 C 12.632812 -13.078125 12.171875 -13.617188 11.578125 -14.015625 C 10.992188 -14.410156 10.300781 -14.609375 9.5 -14.609375 C 8.59375 -14.609375 7.804688 -14.40625 7.140625 -14 C 6.484375 -13.601562 5.96875 -13.046875 5.59375 -12.328125 C 5.226562 -11.617188 5.046875 -10.796875 5.046875 -9.859375 L 5.046875 -0.359375 C 5.046875 -0.0976562 4.910156 0.03125 4.640625 0.03125 L 2.953125 0.03125 C 2.679688 0.03125 2.546875 -0.0976562 2.546875 -0.359375 L 2.546875 -16.203125 C 2.546875 -16.484375 2.679688 -16.625 2.953125 -16.625 L 3.953125 -16.625 C 4.171875 -16.625 4.304688 -16.519531 4.359375 -16.3125 L 4.78125 -13.53125 C 5.25 -14.570312 5.957031 -15.394531 6.90625 -16 C 7.863281 -16.613281 8.957031 -16.921875 10.1875 -16.921875 C 11.457031 -16.921875 12.554688 -16.570312 13.484375 -15.875 C 14.421875 -15.175781 15.097656 -14.222656 15.515625 -13.015625 C 15.796875 -13.816406 16.203125 -14.507812 16.734375 -15.09375 C 17.273438 -15.675781 17.921875 -16.125 18.671875 -16.4375 C 19.421875 -16.757812 20.238281 -16.921875 21.125 -16.921875 Z M 21.125 -16.921875 "/></g></g></g><g fill="#000000" fill-opacity="1"><g transform="translate(152.624939, 44.660992)"><g><path d="M 3.78125 -19.84375 C 3.320312 -19.84375 2.929688 -20 2.609375 -20.3125 C 2.296875 -20.632812 2.140625 -21.03125 2.140625 -21.5 C 2.140625 -21.945312 2.296875 -22.332031 2.609375 -22.65625 C 2.929688 -22.988281 3.320312 -23.15625 3.78125 -23.15625 C 4.257812 -23.15625 4.65625 -22.988281 4.96875 -22.65625 C 5.289062 -22.332031 5.453125 -21.945312 5.453125 -21.5 C 5.453125 -21.03125 5.289062 -20.632812 4.96875 -20.3125 C 4.65625 -20 4.257812 -19.84375 3.78125 -19.84375 Z M 4.640625 -16.625 C 4.910156 -16.625 5.046875 -16.488281 5.046875 -16.21875 L 5.046875 -0.359375 C 5.046875 -0.109375 4.910156 0.015625 4.640625 0.015625 L 2.921875 0.015625 C 2.671875 0.015625 2.546875 -0.109375 2.546875 -0.359375 L 2.546875 -16.21875 C 2.546875 -16.488281 2.671875 -16.625 2.921875 -16.625 Z M 4.640625 -16.625 "/></g></g></g><g fill="#000000" fill-opacity="1"><g transform="translate(159.198171, 44.660992)"><g><path d="M 10.90625 -16.984375 C 12.195312 -16.984375 13.328125 -16.695312 14.296875 -16.125 C 15.273438 -15.5625 16.039062 -14.773438 16.59375 -13.765625 C 17.144531 -12.753906 17.421875 -11.5625 17.421875 -10.1875 L 17.421875 -0.375 C 17.421875 -0.113281 17.289062 0.015625 17.03125 0.015625 L 15.34375 0.015625 C 15.0625 0.015625 14.921875 -0.113281 14.921875 -0.375 L 14.921875 -10.0625 C 14.921875 -10.957031 14.722656 -11.753906 14.328125 -12.453125 C 13.929688 -13.148438 13.378906 -13.691406 12.671875 -14.078125 C 11.972656 -14.472656 11.15625 -14.671875 10.21875 -14.671875 C 9.507812 -14.671875 8.84375 -14.546875 8.21875 -14.296875 C 7.59375 -14.046875 7.039062 -13.703125 6.5625 -13.265625 C 6.09375 -12.828125 5.722656 -12.316406 5.453125 -11.734375 C 5.179688 -11.160156 5.046875 -10.550781 5.046875 -9.90625 L 5.046875 -0.359375 C 5.046875 -0.0976562 4.910156 0.03125 4.640625 0.03125 L 2.953125 0.03125 C 2.679688 0.03125 2.546875 -0.0976562 2.546875 -0.359375 L 2.546875 -16.203125 C 2.546875 -16.484375 2.679688 -16.625 2.953125 -16.625 L 3.953125 -16.625 C 4.171875 -16.625 4.304688 -16.519531 4.359375 -16.3125 L 4.8125 -13.359375 C 5.164062 -14.066406 5.648438 -14.691406 6.265625 -15.234375 C 6.890625 -15.773438 7.597656 -16.203125 8.390625 -16.515625 C 9.191406 -16.828125 10.03125 -16.984375 10.90625 -16.984375 Z M 10.90625 -16.984375 "/></g></g></g><g fill="#000000" fill-opacity="1"><g transform="translate(178.002794, 44.660992)"><g><path d="M 19.5 -6 C 19.707031 -6.15625 19.914062 -6.226562 20.125 -6.21875 C 20.34375 -6.207031 20.507812 -6.125 20.625 -5.96875 L 22.5 -3.109375 C 22.582031 -2.984375 22.59375 -2.828125 22.53125 -2.640625 C 22.46875 -2.460938 22.34375 -2.304688 22.15625 -2.171875 C 21.488281 -1.660156 20.726562 -1.210938 19.875 -0.828125 C 19.03125 -0.441406 18.148438 -0.144531 17.234375 0.0625 C 16.316406 0.28125 15.429688 0.390625 14.578125 0.390625 C 13.117188 0.390625 11.726562 0.179688 10.40625 -0.234375 C 9.09375 -0.660156 7.894531 -1.257812 6.8125 -2.03125 C 5.726562 -2.8125 4.785156 -3.738281 3.984375 -4.8125 C 3.191406 -5.882812 2.578125 -7.066406 2.140625 -8.359375 C 1.703125 -9.648438 1.484375 -11.019531 1.484375 -12.46875 C 1.484375 -13.914062 1.703125 -15.285156 2.140625 -16.578125 C 2.578125 -17.878906 3.191406 -19.066406 3.984375 -20.140625 C 4.785156 -21.210938 5.726562 -22.140625 6.8125 -22.921875 C 7.894531 -23.703125 9.09375 -24.304688 10.40625 -24.734375 C 11.726562 -25.160156 13.117188 -25.375 14.578125 -25.375 C 15.410156 -25.375 16.285156 -25.269531 17.203125 -25.0625 C 18.128906 -24.851562 19.03125 -24.550781 19.90625 -24.15625 C 20.789062 -23.769531 21.570312 -23.304688 22.25 -22.765625 C 22.457031 -22.609375 22.570312 -22.441406 22.59375 -22.265625 C 22.613281 -22.085938 22.582031 -21.9375 22.5 -21.8125 L 20.625 -18.96875 C 20.53125 -18.832031 20.378906 -18.75 20.171875 -18.71875 C 19.972656 -18.6875 19.765625 -18.757812 19.546875 -18.9375 C 18.859375 -19.53125 18.066406 -19.976562 17.171875 -20.28125 C 16.285156 -20.59375 15.421875 -20.75 14.578125 -20.75 C 13.398438 -20.75 12.300781 -20.535156 11.28125 -20.109375 C 10.257812 -19.691406 9.359375 -19.101562 8.578125 -18.34375 C 7.804688 -17.59375 7.203125 -16.710938 6.765625 -15.703125 C 6.335938 -14.703125 6.125 -13.625 6.125 -12.46875 C 6.125 -11.320312 6.34375 -10.25 6.78125 -9.25 C 7.21875 -8.25 7.820312 -7.375 8.59375 -6.625 C 9.375 -5.875 10.269531 -5.289062 11.28125 -4.875 C 12.300781 -4.457031 13.398438 -4.25 14.578125 -4.25 C 15.390625 -4.25 16.238281 -4.398438 17.125 -4.703125 C 18.019531 -5.015625 18.8125 -5.445312 19.5 -6 Z M 19.5 -6 "/></g></g></g><g fill="#000000" fill-opacity="1"><g transform="translate(201.225444, 44.660992)"><g><path d="M 18.921875 -4.078125 C 19.285156 -4.078125 19.46875 -3.890625 19.46875 -3.515625 L 19.46875 -0.5625 C 19.46875 -0.1875 19.285156 0 18.921875 0 L 3.53125 0 C 3.164062 0 2.984375 -0.1875 2.984375 -0.5625 L 2.984375 -24.46875 C 2.984375 -24.84375 3.164062 -25.03125 3.53125 -25.03125 L 7.09375 -25.03125 C 7.457031 -25.03125 7.640625 -24.84375 7.640625 -24.46875 L 7.640625 -4.078125 Z M 18.921875 -4.078125 "/></g></g></g><g fill="#000000" fill-opacity="1"><g transform="translate(220.318638, 44.660992)"><g><path d="M 1.484375 -12.453125 C 1.484375 -13.898438 1.695312 -15.273438 2.125 -16.578125 C 2.550781 -17.878906 3.160156 -19.0625 3.953125 -20.125 C 4.742188 -21.195312 5.675781 -22.125 6.75 -22.90625 C 7.820312 -23.695312 9.007812 -24.304688 10.3125 -24.734375 C 11.625 -25.160156 13.003906 -25.375 14.453125 -25.375 C 15.898438 -25.375 17.273438 -25.160156 18.578125 -24.734375 C 19.878906 -24.304688 21.066406 -23.695312 22.140625 -22.90625 C 23.222656 -22.125 24.160156 -21.195312 24.953125 -20.125 C 25.742188 -19.0625 26.351562 -17.878906 26.78125 -16.578125 C 27.207031 -15.273438 27.421875 -13.898438 27.421875 -12.453125 C 27.421875 -11.003906 27.207031 -9.632812 26.78125 -8.34375 C 26.351562 -7.050781 25.742188 -5.867188 24.953125 -4.796875 C 24.160156 -3.734375 23.222656 -2.8125 22.140625 -2.03125 C 21.066406 -1.257812 19.878906 -0.660156 18.578125 -0.234375 C 17.273438 0.179688 15.898438 0.390625 14.453125 0.390625 C 13.003906 0.390625 11.625 0.179688 10.3125 -0.234375 C 9.007812 -0.660156 7.820312 -1.257812 6.75 -2.03125 C 5.675781 -2.8125 4.742188 -3.734375 3.953125 -4.796875 C 3.160156 -5.867188 2.550781 -7.050781 2.125 -8.34375 C 1.695312 -9.632812 1.484375 -11.003906 1.484375 -12.453125 Z M 6.125 -12.453125 C 6.125 -11.296875 6.332031 -10.21875 6.75 -9.21875 C 7.175781 -8.226562 7.769531 -7.359375 8.53125 -6.609375 C 9.289062 -5.867188 10.175781 -5.289062 11.1875 -4.875 C 12.195312 -4.457031 13.285156 -4.25 14.453125 -4.25 C 15.617188 -4.25 16.703125 -4.457031 17.703125 -4.875 C 18.710938 -5.289062 19.597656 -5.867188 20.359375 -6.609375 C 21.128906 -7.359375 21.722656 -8.226562 22.140625 -9.21875 C 22.566406 -10.21875 22.78125 -11.296875 22.78125 -12.453125 C 22.78125 -13.628906 22.566406 -14.71875 22.140625 -15.71875 C 21.710938 -16.726562 21.117188 -17.609375 20.359375 -18.359375 C 19.597656 -19.109375 18.710938 -19.691406 17.703125 -20.109375 C 16.691406 -20.535156 15.609375 -20.75 14.453125 -20.75 C 13.285156 -20.75 12.195312 -20.535156 11.1875 -20.109375 C 10.175781 -19.691406 9.289062 -19.109375 8.53125 -18.359375 C 7.78125 -17.609375 7.191406 -16.726562 6.765625 -15.71875 C 6.335938 -14.71875 6.125 -13.628906 6.125 -12.453125 Z M 6.125 -12.453125 "/></g></g></g><g fill="#000000" fill-opacity="1"><g transform="translate(248.197197, 44.660992)"><g><path d="M 7.171875 -24.453125 L 7.171875 -10.234375 C 7.171875 -9.359375 7.316406 -8.550781 7.609375 -7.8125 C 7.898438 -7.070312 8.304688 -6.425781 8.828125 -5.875 C 9.359375 -5.320312 9.984375 -4.894531 10.703125 -4.59375 C 11.421875 -4.289062 12.207031 -4.140625 13.0625 -4.140625 C 13.914062 -4.140625 14.695312 -4.289062 15.40625 -4.59375 C 16.125 -4.894531 16.75 -5.320312 17.28125 -5.875 C 17.8125 -6.425781 18.222656 -7.070312 18.515625 -7.8125 C 18.804688 -8.550781 18.953125 -9.359375 18.953125 -10.234375 L 18.953125 -24.453125 C 18.953125 -24.835938 19.148438 -25.03125 19.546875 -25.03125 L 22.984375 -25.03125 C 23.390625 -25.03125 23.59375 -24.835938 23.59375 -24.453125 L 23.59375 -10.21875 C 23.59375 -8.644531 23.335938 -7.210938 22.828125 -5.921875 C 22.316406 -4.628906 21.59375 -3.507812 20.65625 -2.5625 C 19.71875 -1.625 18.601562 -0.894531 17.3125 -0.375 C 16.03125 0.132812 14.613281 0.390625 13.0625 0.390625 C 11.507812 0.390625 10.085938 0.128906 8.796875 -0.390625 C 7.503906 -0.910156 6.390625 -1.644531 5.453125 -2.59375 C 4.515625 -3.539062 3.789062 -4.664062 3.28125 -5.96875 C 2.78125 -7.28125 2.53125 -8.71875 2.53125 -10.28125 L 2.53125 -24.453125 C 2.53125 -24.835938 2.710938 -25.03125 3.078125 -25.03125 L 6.625 -25.03125 C 6.988281 -25.03125 7.171875 -24.835938 7.171875 -24.453125 Z M 7.171875 -24.453125 "/></g></g></g><g fill="#000000" fill-opacity="1"><g transform="translate(273.328278, 44.660992)"><g><path d="M 2.984375 -0.71875 L 2.984375 -24.28125 C 2.984375 -24.5 3.050781 -24.671875 3.1875 -24.796875 C 3.332031 -24.929688 3.507812 -25 3.71875 -25 L 12.921875 -25 C 14.390625 -25 15.765625 -24.796875 17.046875 -24.390625 C 18.335938 -23.992188 19.507812 -23.425781 20.5625 -22.6875 C 21.613281 -21.945312 22.507812 -21.0625 23.25 -20.03125 C 24 -19 24.578125 -17.84375 24.984375 -16.5625 C 25.390625 -15.289062 25.59375 -13.929688 25.59375 -12.484375 C 25.59375 -11.046875 25.390625 -9.691406 24.984375 -8.421875 C 24.578125 -7.160156 24 -6.015625 23.25 -4.984375 C 22.5 -3.953125 21.597656 -3.0625 20.546875 -2.3125 C 19.492188 -1.570312 18.320312 -1 17.03125 -0.59375 C 15.738281 -0.195312 14.347656 0 12.859375 0 L 3.734375 0 C 3.515625 0 3.332031 -0.0664062 3.1875 -0.203125 C 3.050781 -0.335938 2.984375 -0.507812 2.984375 -0.71875 Z M 7.640625 -4.40625 L 12.84375 -4.40625 C 14.007812 -4.40625 15.085938 -4.613281 16.078125 -5.03125 C 17.066406 -5.445312 17.921875 -6.023438 18.640625 -6.765625 C 19.367188 -7.503906 19.929688 -8.363281 20.328125 -9.34375 C 20.734375 -10.320312 20.9375 -11.367188 20.9375 -12.484375 C 20.9375 -13.640625 20.734375 -14.710938 20.328125 -15.703125 C 19.929688 -16.691406 19.375 -17.554688 18.65625 -18.296875 C 17.9375 -19.046875 17.085938 -19.625 16.109375 -20.03125 C 15.128906 -20.445312 14.0625 -20.65625 12.90625 -20.65625 L 7.640625 -20.640625 Z M 7.640625 -4.40625 "/></g></g></g></svg>